<?xml version="1.0" encoding="UTF-8" standalone="no"?>
<!-- Generator: Adobe Illustrator 19.0.0, SVG Export Plug-In . SVG Version: 6.00 Build 0)  -->

<svg
   xmlns:dc="http://purl.org/dc/elements/1.1/"
   xmlns:cc="http://creativecommons.org/ns#"
   xmlns:rdf="http://www.w3.org/1999/02/22-rdf-syntax-ns#"
   xmlns:svg="http://www.w3.org/2000/svg"
   xmlns="http://www.w3.org/2000/svg"
   xmlns:sodipodi="http://sodipodi.sourceforge.net/DTD/sodipodi-0.dtd"
   xmlns:inkscape="http://www.inkscape.org/namespaces/inkscape"
   version="1.1"
   id="Capa_1"
   x="0px"
   y="0px"
   viewBox="0 0 512 512"
   style="enable-background:new 0 0 512 512;"
   xml:space="preserve"
   sodipodi:docname="shopping-bag.svg"
   inkscape:version="0.92.3 (2405546, 2018-03-11)"><metadata
   id="metadata7496"><rdf:RDF><cc:Work
       rdf:about=""><dc:format>image/svg+xml</dc:format><dc:type
         rdf:resource="http://purl.org/dc/dcmitype/StillImage" /></cc:Work></rdf:RDF></metadata><defs
   id="defs7494" /><sodipodi:namedview
   pagecolor="#ffffff"
   bordercolor="#666666"
   borderopacity="1"
   objecttolerance="10"
   gridtolerance="10"
   guidetolerance="10"
   inkscape:pageopacity="0"
   inkscape:pageshadow="2"
   inkscape:window-width="1920"
   inkscape:window-height="1028"
   id="namedview7492"
   showgrid="false"
   inkscape:zoom="0.4609375"
   inkscape:cx="131.25424"
   inkscape:cy="256"
   inkscape:window-x="-8"
   inkscape:window-y="-8"
   inkscape:window-maximized="1"
   inkscape:current-layer="Capa_1" />
<g
   id="g7453"
   style="fill:#ffed00;fill-opacity:1">
	<g
   id="g7451"
   style="fill:#ffed00;fill-opacity:1">
		<path
   d="M467.952,427.383l-25.3-245.673c-1.045-10.187-9.627-17.93-19.867-17.93h-332.9c-10.213,0-18.789,7.717-19.861,17.877    L44.044,427.45c-2.144,21.452,5.007,43.011,19.614,59.156C78.266,502.739,98.986,512,120.511,512h271.653    c21.425,0,41.952-9.075,56.293-24.914C462.999,471.06,470.103,449.328,467.952,427.383z M418.876,460.261    c-6.898,7.603-16.385,11.791-26.712,11.791H120.518c-10.26,0-20.187-4.468-27.238-12.257c-7.051-7.79-10.506-18.13-9.494-28.257    l24.075-227.803h296.9l23.449,227.657C429.276,442.198,425.953,452.451,418.876,460.261z"
   id="path7449"
   style="fill:#ffed00;fill-opacity:1" />
	</g>
</g>
<g
   id="g7459"
   style="fill:#ffed00;fill-opacity:1">
	<g
   id="g7457"
   style="fill:#ffed00;fill-opacity:1">
		<path
   d="M259.663,0c-63.144,0-114.518,51.373-114.518,114.518v69.243h39.948v-69.243c0-41.12,33.45-74.57,74.57-74.57    c41.12,0,74.576,33.45,74.576,74.57v69.243h39.941v-69.243C374.181,51.373,322.808,0,259.663,0z"
   id="path7455"
   style="fill:#ffed00;fill-opacity:1" />
	</g>
</g>
<g
   id="g7461">
</g>
<g
   id="g7463">
</g>
<g
   id="g7465">
</g>
<g
   id="g7467">
</g>
<g
   id="g7469">
</g>
<g
   id="g7471">
</g>
<g
   id="g7473">
</g>
<g
   id="g7475">
</g>
<g
   id="g7477">
</g>
<g
   id="g7479">
</g>
<g
   id="g7481">
</g>
<g
   id="g7483">
</g>
<g
   id="g7485">
</g>
<g
   id="g7487">
</g>
<g
   id="g7489">
</g>
</svg>