<?xml version="1.0" encoding="UTF-8" standalone="no"?>
<svg
   xmlns:dc="http://purl.org/dc/elements/1.1/"
   xmlns:cc="http://creativecommons.org/ns#"
   xmlns:rdf="http://www.w3.org/1999/02/22-rdf-syntax-ns#"
   xmlns:svg="http://www.w3.org/2000/svg"
   xmlns="http://www.w3.org/2000/svg"
   xmlns:sodipodi="http://sodipodi.sourceforge.net/DTD/sodipodi-0.dtd"
   xmlns:inkscape="http://www.inkscape.org/namespaces/inkscape"
   inkscape:version="1.0 (4035a4fb49, 2020-05-01)"
   sodipodi:docname="magazine.svg"
   id="svg2961"
   version="1.1"
   width="512pt"
   viewBox="-76 0 512 512"
   height="512pt">
  <metadata
     id="metadata2967">
    <rdf:RDF>
      <cc:Work
         rdf:about="">
        <dc:format>image/svg+xml</dc:format>
        <dc:type
           rdf:resource="http://purl.org/dc/dcmitype/StillImage" />
      </cc:Work>
    </rdf:RDF>
  </metadata>
  <defs
     id="defs2965" />
  <sodipodi:namedview
     inkscape:current-layer="svg2961"
     inkscape:window-maximized="1"
     inkscape:window-y="-8"
     inkscape:window-x="-8"
     inkscape:cy="438.12411"
     inkscape:cx="304.6902"
     inkscape:zoom="0.99609375"
     showgrid="false"
     id="namedview2963"
     inkscape:window-height="847"
     inkscape:window-width="1440"
     inkscape:pageshadow="2"
     inkscape:pageopacity="0"
     guidetolerance="10"
     gridtolerance="10"
     objecttolerance="10"
     borderopacity="1"
     bordercolor="#666666"
     pagecolor="#ffffff" />
  <path
     style="fill:#006633;fill-opacity:1"
     id="path2959"
     d="m340 76h-60.203125c-12.792969-43.859375-53.359375-76-101.296875-76-11.046875 0-20 8.953125-20 20v56h-138.5c-11.046875 0-20 8.953125-20 20v396c0 11.046875 8.953125 20 20 20h320c11.046875 0 20-8.953125 20-20v-396c0-11.046875-8.953125-20-20-20zm-161.5 396h-138.5v-356h118.5v205c0 11.046875 8.953125 20 20 20 36.117188 0 65.5 29.382812 65.5 65.5s-29.382812 65.5-65.5 65.5zm65.5-148.148438c-13.027344-10.347656-28.546875-17.683593-45.5-20.949218v-259.78125c26.363281 8.476562 45.5 33.234375 45.5 62.378906zm76 148.148438h-58.855469c14.300781-18.007812 22.855469-40.773438 22.855469-65.5v-290.5h36zm0 0" />
</svg>
