<?xml version="1.0" encoding="UTF-8" standalone="no"?>
<!-- Generator: Adobe Illustrator 19.0.0, SVG Export Plug-In . SVG Version: 6.00 Build 0)  -->

<svg
   xmlns:dc="http://purl.org/dc/elements/1.1/"
   xmlns:cc="http://creativecommons.org/ns#"
   xmlns:rdf="http://www.w3.org/1999/02/22-rdf-syntax-ns#"
   xmlns:svg="http://www.w3.org/2000/svg"
   xmlns="http://www.w3.org/2000/svg"
   xmlns:sodipodi="http://sodipodi.sourceforge.net/DTD/sodipodi-0.dtd"
   xmlns:inkscape="http://www.inkscape.org/namespaces/inkscape"
   version="1.1"
   id="Capa_1"
   x="0px"
   y="0px"
   viewBox="0 0 512 512"
   style="enable-background:new 0 0 512 512;"
   xml:space="preserve"
   sodipodi:docname="magnifying-glass.svg"
   inkscape:version="0.92.3 (2405546, 2018-03-11)"><metadata
   id="metadata3144"><rdf:RDF><cc:Work
       rdf:about=""><dc:format>image/svg+xml</dc:format><dc:type
         rdf:resource="http://purl.org/dc/dcmitype/StillImage" /></cc:Work></rdf:RDF></metadata><defs
   id="defs3142" /><sodipodi:namedview
   pagecolor="#ffffff"
   bordercolor="#666666"
   borderopacity="1"
   objecttolerance="10"
   gridtolerance="10"
   guidetolerance="10"
   inkscape:pageopacity="0"
   inkscape:pageshadow="2"
   inkscape:window-width="1920"
   inkscape:window-height="1028"
   id="namedview3140"
   showgrid="false"
   inkscape:zoom="0.4609375"
   inkscape:cx="131.25424"
   inkscape:cy="256"
   inkscape:window-x="-8"
   inkscape:window-y="-8"
   inkscape:window-maximized="1"
   inkscape:current-layer="Capa_1" />
<g
   id="g3107"
   style="fill:#006633;fill-opacity:1">
	<g
   id="g3105"
   style="fill:#006633;fill-opacity:1">
		<path
   d="M302,0C186.206,0,92,94.206,92,210c0,50.944,18.234,97.709,48.519,134.112L5.906,477.81    c-7.837,7.784-7.88,20.447-0.097,28.284C9.719,510.03,14.859,512,20,512c5.095,0,10.192-1.936,14.093-5.81L168.89,372.31    C205.148,402.098,251.523,420,302,420c36.026,0,71.576-9.283,102.804-26.846c9.628-5.414,13.043-17.608,7.628-27.236    c-5.414-9.627-17.608-13.044-27.236-7.628C359.942,372.493,331.173,380,302,380c-93.738,0-170-76.262-170-170S208.262,40,302,40    s170,76.262,170,170c0,29.531-7.683,58.609-22.217,84.091c-5.473,9.595-2.131,21.809,7.463,27.282    c9.595,5.472,21.809,2.131,27.282-7.463C502.5,282.4,512,246.469,512,210C512,94.206,417.794,0,302,0z"
   id="path3103"
   style="fill:#006633;fill-opacity:1" />
	</g>
</g>
<g
   id="g3109">
</g>
<g
   id="g3111">
</g>
<g
   id="g3113">
</g>
<g
   id="g3115">
</g>
<g
   id="g3117">
</g>
<g
   id="g3119">
</g>
<g
   id="g3121">
</g>
<g
   id="g3123">
</g>
<g
   id="g3125">
</g>
<g
   id="g3127">
</g>
<g
   id="g3129">
</g>
<g
   id="g3131">
</g>
<g
   id="g3133">
</g>
<g
   id="g3135">
</g>
<g
   id="g3137">
</g>
</svg>