<?xml version="1.0" encoding="UTF-8" standalone="no"?>
<!-- Generator: Adobe Illustrator 19.0.0, SVG Export Plug-In . SVG Version: 6.00 Build 0)  -->

<svg
   xmlns:dc="http://purl.org/dc/elements/1.1/"
   xmlns:cc="http://creativecommons.org/ns#"
   xmlns:rdf="http://www.w3.org/1999/02/22-rdf-syntax-ns#"
   xmlns:svg="http://www.w3.org/2000/svg"
   xmlns="http://www.w3.org/2000/svg"
   xmlns:sodipodi="http://sodipodi.sourceforge.net/DTD/sodipodi-0.dtd"
   xmlns:inkscape="http://www.inkscape.org/namespaces/inkscape"
   version="1.1"
   id="Capa_1"
   x="0px"
   y="0px"
   viewBox="0 0 512 512"
   style="enable-background:new 0 0 512 512;"
   xml:space="preserve"
   sodipodi:docname="user.svg"
   inkscape:version="0.92.3 (2405546, 2018-03-11)"><metadata
   id="metadata43"><rdf:RDF><cc:Work
       rdf:about=""><dc:format>image/svg+xml</dc:format><dc:type
         rdf:resource="http://purl.org/dc/dcmitype/StillImage" /></cc:Work></rdf:RDF></metadata><defs
   id="defs41" /><sodipodi:namedview
   pagecolor="#ffffff"
   bordercolor="#666666"
   borderopacity="1"
   objecttolerance="10"
   gridtolerance="10"
   guidetolerance="10"
   inkscape:pageopacity="0"
   inkscape:pageshadow="2"
   inkscape:window-width="1920"
   inkscape:window-height="1028"
   id="namedview39"
   showgrid="false"
   inkscape:zoom="0.4609375"
   inkscape:cx="131.25424"
   inkscape:cy="256"
   inkscape:window-x="-8"
   inkscape:window-y="-8"
   inkscape:window-maximized="1"
   inkscape:current-layer="Capa_1" />
<g
   id="g6"
   style="fill:#ffffff;fill-opacity:1">
	<g
   id="g4"
   style="fill:#ffffff;fill-opacity:1">
		<path
   d="M510.702,438.722c-2.251-10.813-12.84-17.754-23.657-15.503c-10.814,2.251-17.755,12.843-15.503,23.656    c1.297,6.229-0.248,12.613-4.236,17.519c-2.31,2.841-7.461,7.606-15.999,7.606H60.693c-8.538,0-13.689-4.766-15.999-7.606    c-3.989-4.905-5.533-11.29-4.236-17.519c20.756-99.695,108.691-172.521,210.24-174.977c1.759,0.068,3.526,0.102,5.302,0.102    c1.782,0,3.556-0.035,5.322-0.103c71.532,1.716,137.648,37.947,177.687,97.66c6.151,9.175,18.574,11.625,27.75,5.474    c9.174-6.151,11.625-18.575,5.473-27.749c-32.817-48.944-80.47-84.534-134.804-102.417C370.538,220.036,392,180.477,392,136    C392,61.01,330.991,0,256,0S120,61.01,120,136c0,44.504,21.488,84.084,54.633,108.911c-30.368,9.998-58.863,25.555-83.803,46.069    c-45.732,37.617-77.529,90.086-89.532,147.742c-3.762,18.067,0.745,36.623,12.363,50.909C25.222,503.847,42.365,512,60.693,512    h390.613c18.329,0,35.472-8.153,47.032-22.369C509.958,475.345,514.464,456.789,510.702,438.722z M160,136    c0-52.935,43.065-96,96-96s96,43.065,96,96c0,51.305-40.455,93.339-91.141,95.878c-1.617-0.03-3.237-0.045-4.859-0.045    c-1.614,0-3.228,0.016-4.84,0.046C200.465,229.35,160,187.312,160,136z"
   id="path2"
   style="fill:#ffffff;fill-opacity:1" />
	</g>
</g>
<g
   id="g8">
</g>
<g
   id="g10">
</g>
<g
   id="g12">
</g>
<g
   id="g14">
</g>
<g
   id="g16">
</g>
<g
   id="g18">
</g>
<g
   id="g20">
</g>
<g
   id="g22">
</g>
<g
   id="g24">
</g>
<g
   id="g26">
</g>
<g
   id="g28">
</g>
<g
   id="g30">
</g>
<g
   id="g32">
</g>
<g
   id="g34">
</g>
<g
   id="g36">
</g>
</svg>