<?xml version="1.0" encoding="UTF-8" standalone="no"?>
<!-- Generator: Adobe Illustrator 19.0.0, SVG Export Plug-In . SVG Version: 6.00 Build 0)  -->

<svg
   xmlns:dc="http://purl.org/dc/elements/1.1/"
   xmlns:cc="http://creativecommons.org/ns#"
   xmlns:rdf="http://www.w3.org/1999/02/22-rdf-syntax-ns#"
   xmlns:svg="http://www.w3.org/2000/svg"
   xmlns="http://www.w3.org/2000/svg"
   xmlns:sodipodi="http://sodipodi.sourceforge.net/DTD/sodipodi-0.dtd"
   xmlns:inkscape="http://www.inkscape.org/namespaces/inkscape"
   version="1.1"
   id="Layer_1"
   x="0px"
   y="0px"
   viewBox="0 0 504 504"
   style="enable-background:new 0 0 504 504;"
   xml:space="preserve"
   sodipodi:docname="icon-facebook.svg"
   inkscape:version="0.92.3 (2405546, 2018-03-11)"><metadata
   id="metadata7703"><rdf:RDF><cc:Work
       rdf:about=""><dc:format>image/svg+xml</dc:format><dc:type
         rdf:resource="http://purl.org/dc/dcmitype/StillImage" /></cc:Work></rdf:RDF></metadata><defs
   id="defs7701" /><sodipodi:namedview
   pagecolor="#ffffff"
   bordercolor="#666666"
   borderopacity="1"
   objecttolerance="10"
   gridtolerance="10"
   guidetolerance="10"
   inkscape:pageopacity="0"
   inkscape:pageshadow="2"
   inkscape:window-width="1920"
   inkscape:window-height="1028"
   id="namedview7699"
   showgrid="false"
   inkscape:zoom="0.46825397"
   inkscape:cx="-340.62712"
   inkscape:cy="252"
   inkscape:window-x="-8"
   inkscape:window-y="-8"
   inkscape:window-maximized="1"
   inkscape:current-layer="Layer_1" />
<g
   id="g7666"
   style="fill:#ffffff;fill-opacity:1">
	<g
   id="g7664"
   style="fill:#ffffff;fill-opacity:1">
		<path
   d="M377.6,0H126C56.8,0,0,56.8,0,126.4V378c0,69.2,56.8,126,126,126h251.6c69.6,0,126.4-56.8,126.4-126.4V126.4    C504,56.8,447.2,0,377.6,0z M319.6,252H272v156h-60V252h-32v-64h28v-27.2c0-25.6,12.8-66,66.8-66H324V148h-34.8    c-5.6,0-13.2,3.6-13.2,16v24h49.2L319.6,252z"
   id="path7662"
   style="fill:#ffffff;fill-opacity:1" />
	</g>
</g>
<g
   id="g7668">
</g>
<g
   id="g7670">
</g>
<g
   id="g7672">
</g>
<g
   id="g7674">
</g>
<g
   id="g7676">
</g>
<g
   id="g7678">
</g>
<g
   id="g7680">
</g>
<g
   id="g7682">
</g>
<g
   id="g7684">
</g>
<g
   id="g7686">
</g>
<g
   id="g7688">
</g>
<g
   id="g7690">
</g>
<g
   id="g7692">
</g>
<g
   id="g7694">
</g>
<g
   id="g7696">
</g>
</svg>