<?xml version="1.0" encoding="UTF-8" standalone="no"?>
<!-- Generator: Adobe Illustrator 19.0.0, SVG Export Plug-In . SVG Version: 6.00 Build 0)  -->

<svg
   xmlns:dc="http://purl.org/dc/elements/1.1/"
   xmlns:cc="http://creativecommons.org/ns#"
   xmlns:rdf="http://www.w3.org/1999/02/22-rdf-syntax-ns#"
   xmlns:svg="http://www.w3.org/2000/svg"
   xmlns="http://www.w3.org/2000/svg"
   xmlns:sodipodi="http://sodipodi.sourceforge.net/DTD/sodipodi-0.dtd"
   xmlns:inkscape="http://www.inkscape.org/namespaces/inkscape"
   version="1.1"
   id="Capa_1"
   x="0px"
   y="0px"
   viewBox="0 0 512 512"
   style="enable-background:new 0 0 512 512;"
   xml:space="preserve"
   sodipodi:docname="709533.svg"
   inkscape:version="0.92.3 (2405546, 2018-03-11)"><metadata
   id="metadata6069"><rdf:RDF><cc:Work
       rdf:about=""><dc:format>image/svg+xml</dc:format><dc:type
         rdf:resource="http://purl.org/dc/dcmitype/StillImage" /></cc:Work></rdf:RDF></metadata><defs
   id="defs6067" /><sodipodi:namedview
   pagecolor="#ffffff"
   bordercolor="#666666"
   borderopacity="1"
   objecttolerance="10"
   gridtolerance="10"
   guidetolerance="10"
   inkscape:pageopacity="0"
   inkscape:pageshadow="2"
   inkscape:window-width="1920"
   inkscape:window-height="1028"
   id="namedview6065"
   showgrid="false"
   inkscape:zoom="0.4609375"
   inkscape:cx="131.25424"
   inkscape:cy="256"
   inkscape:window-x="-8"
   inkscape:window-y="-8"
   inkscape:window-maximized="1"
   inkscape:current-layer="Capa_1" />
<g
   id="g6026"
   style="fill:#ffed00;fill-opacity:1">
	<g
   id="g6024"
   style="fill:#ffed00;fill-opacity:1">
		<path
   d="M505.496,240.307l-194.59-194.59c-8.672-8.671-22.714-8.671-31.386,0c-8.671,8.664-8.671,22.722,0,31.386L458.418,256    L279.521,434.897c-8.671,8.664-8.671,22.722,0,31.386c4.336,4.336,10.011,6.504,15.693,6.504s11.365-2.168,15.693-6.504    l194.59-194.59C514.168,263.029,514.168,248.971,505.496,240.307z"
   id="path6022"
   style="fill:#ffed00;fill-opacity:1" />
	</g>
</g>
<g
   id="g6032"
   style="fill:#ffed00;fill-opacity:1">
	<g
   id="g6030"
   style="fill:#ffed00;fill-opacity:1">
		<path
   d="M232.479,240.307L37.889,45.717c-8.664-8.671-22.722-8.671-31.386,0c-8.671,8.664-8.671,22.722,0,31.386L185.393,256    L6.504,434.897c-8.671,8.664-8.671,22.722,0,31.386c4.328,4.336,10.011,6.504,15.693,6.504s11.365-2.168,15.693-6.504    l194.59-194.59C241.15,263.029,241.15,248.971,232.479,240.307z"
   id="path6028"
   style="fill:#ffed00;fill-opacity:1" />
	</g>
</g>
<g
   id="g6034">
</g>
<g
   id="g6036">
</g>
<g
   id="g6038">
</g>
<g
   id="g6040">
</g>
<g
   id="g6042">
</g>
<g
   id="g6044">
</g>
<g
   id="g6046">
</g>
<g
   id="g6048">
</g>
<g
   id="g6050">
</g>
<g
   id="g6052">
</g>
<g
   id="g6054">
</g>
<g
   id="g6056">
</g>
<g
   id="g6058">
</g>
<g
   id="g6060">
</g>
<g
   id="g6062">
</g>
</svg>