<?xml version="1.0" encoding="UTF-8" standalone="no"?>
<svg
   xmlns:dc="http://purl.org/dc/elements/1.1/"
   xmlns:cc="http://creativecommons.org/ns#"
   xmlns:rdf="http://www.w3.org/1999/02/22-rdf-syntax-ns#"
   xmlns:svg="http://www.w3.org/2000/svg"
   xmlns="http://www.w3.org/2000/svg"
   xmlns:sodipodi="http://sodipodi.sourceforge.net/DTD/sodipodi-0.dtd"
   xmlns:inkscape="http://www.inkscape.org/namespaces/inkscape"
   id="Layer_1"
   enable-background="new 0 0 512 512"
   height="512"
   viewBox="0 0 512 512"
   width="512"
   version="1.1"
   sodipodi:docname="3799679.svg"
   inkscape:version="0.92.3 (2405546, 2018-03-11)">
  <metadata
     id="metadata4369">
    <rdf:RDF>
      <cc:Work
         rdf:about="">
        <dc:format>image/svg+xml</dc:format>
        <dc:type
           rdf:resource="http://purl.org/dc/dcmitype/StillImage" />
      </cc:Work>
    </rdf:RDF>
  </metadata>
  <defs
     id="defs4367" />
  <sodipodi:namedview
     pagecolor="#ffffff"
     bordercolor="#666666"
     borderopacity="1"
     objecttolerance="10"
     gridtolerance="10"
     guidetolerance="10"
     inkscape:pageopacity="0"
     inkscape:pageshadow="2"
     inkscape:window-width="1920"
     inkscape:window-height="1028"
     id="namedview4365"
     showgrid="false"
     inkscape:zoom="0.4609375"
     inkscape:cx="131.25424"
     inkscape:cy="256"
     inkscape:window-x="-8"
     inkscape:window-y="-8"
     inkscape:window-maximized="1"
     inkscape:current-layer="Layer_1" />
  <path
     d="m492 288c11.046 0 20-8.954 20-20v-148c0-44.112-35.888-80-80-80h-352c-44.112 0-80 35.888-80 80v272c0 44.112 35.888 80 80 80h352c44.112 0 80-35.888 80-80v-4c0-6.055-2.743-11.784-7.46-15.581l-151.413-121.866 118.873-73.918v91.365c0 11.046 8.954 20 20 20zm-452-111.365 118.842 73.899-118.842 95.386zm431.651 220.66c-2.598 19.563-19.389 34.705-39.651 34.705h-352c-20.375 0-37.241-15.313-39.693-35.035l154.543-124.041 18.905 11.756c26.057 16.205 58.432 16.203 84.49 0l18.891-11.747zm-194.528-146.583c-13.029 8.102-29.216 8.102-42.245 0l-194.317-120.831c-.186-.116-.373-.227-.561-.336v-9.545c0-22.056 17.944-40 40-40h352c22.056 0 40 17.944 40 40v9.532z"
     id="path4362"
     style="fill:#006633;fill-opacity:1" />
</svg>
