<?xml version="1.0" encoding="UTF-8" standalone="no"?>
<!-- Generator: Adobe Illustrator 19.0.0, SVG Export Plug-In . SVG Version: 6.00 Build 0)  -->

<svg
   xmlns:dc="http://purl.org/dc/elements/1.1/"
   xmlns:cc="http://creativecommons.org/ns#"
   xmlns:rdf="http://www.w3.org/1999/02/22-rdf-syntax-ns#"
   xmlns:svg="http://www.w3.org/2000/svg"
   xmlns="http://www.w3.org/2000/svg"
   xmlns:sodipodi="http://sodipodi.sourceforge.net/DTD/sodipodi-0.dtd"
   xmlns:inkscape="http://www.inkscape.org/namespaces/inkscape"
   version="1.1"
   id="Layer_1"
   x="0px"
   y="0px"
   viewBox="0 0 504.4 504.4"
   style="enable-background:new 0 0 504.4 504.4;"
   xml:space="preserve"
   sodipodi:docname="instagram.svg"
   inkscape:version="0.92.3 (2405546, 2018-03-11)"><metadata
   id="metadata8368"><rdf:RDF><cc:Work
       rdf:about=""><dc:format>image/svg+xml</dc:format><dc:type
         rdf:resource="http://purl.org/dc/dcmitype/StillImage" /></cc:Work></rdf:RDF></metadata><defs
   id="defs8366" /><sodipodi:namedview
   pagecolor="#ffffff"
   bordercolor="#666666"
   borderopacity="1"
   objecttolerance="10"
   gridtolerance="10"
   guidetolerance="10"
   inkscape:pageopacity="0"
   inkscape:pageshadow="2"
   inkscape:window-width="1920"
   inkscape:window-height="1028"
   id="namedview8364"
   showgrid="false"
   inkscape:zoom="0.46788264"
   inkscape:cx="129.30593"
   inkscape:cy="252.2"
   inkscape:window-x="-8"
   inkscape:window-y="-8"
   inkscape:window-maximized="1"
   inkscape:current-layer="Layer_1" />
<g
   id="g8313"
   style="fill:#ffed00;fill-opacity:1">
	<g
   id="g8311"
   style="fill:#ffed00;fill-opacity:1">
		<path
   d="M296.8,219.8c-10-14-26.4-23.2-44.8-23.2c-18.4,0-34.8,9.2-44.8,23.2c-6.4,9.2-10.4,20.4-10.4,32.4    c0,30.4,24.8,55.2,55.2,55.2c30.4,0,55.2-24.8,55.2-55.2C307.2,240.2,303.2,229,296.8,219.8z"
   id="path8309"
   style="fill:#ffed00;fill-opacity:1" />
	</g>
</g>
<g
   id="g8319"
   style="fill:#ffed00;fill-opacity:1">
	<g
   id="g8317"
   style="fill:#ffed00;fill-opacity:1">
		<path
   d="M331.6,220.2c4,8,6.4,20.8,6.4,32c0,47.2-38.4,86-86,86c-47.6,0-86-38.4-86-86c0-11.6,2.4-24,6.4-32H124v128.4    c0,16.8,14.8,31.6,31.6,31.6h192.8c16.8,0,31.6-14.8,31.6-31.6V220.2H331.6z"
   id="path8315"
   style="fill:#ffed00;fill-opacity:1" />
	</g>
</g>
<g
   id="g8325"
   style="fill:#ffed00;fill-opacity:1">
	<g
   id="g8323"
   style="fill:#ffed00;fill-opacity:1">
		<polygon
   points="365.6,131.4 319.2,131.4 319.2,184.6 372,184.6 372,138.2 372,131   "
   id="polygon8321"
   style="fill:#ffed00;fill-opacity:1" />
	</g>
</g>
<g
   id="g8331"
   style="fill:#ffed00;fill-opacity:1">
	<g
   id="g8329"
   style="fill:#ffed00;fill-opacity:1">
		<path
   d="M377.6,0.2H126.4C56.8,0.2,0,57,0,126.6v251.6c0,69.2,56.8,126,126.4,126H378c69.6,0,126.4-56.8,126.4-126.4V126.6    C504,57,447.2,0.2,377.6,0.2z M408,219.8L408,219.8l0,128.8c0,33.6-26,59.6-59.6,59.6H155.6c-33.6,0-59.6-26-59.6-59.6V219.8v-64    c0-33.6,26-59.6,59.6-59.6h192.8c33.6,0,59.6,26,59.6,59.6V219.8z"
   id="path8327"
   style="fill:#ffed00;fill-opacity:1" />
	</g>
</g>
<g
   id="g8333">
</g>
<g
   id="g8335">
</g>
<g
   id="g8337">
</g>
<g
   id="g8339">
</g>
<g
   id="g8341">
</g>
<g
   id="g8343">
</g>
<g
   id="g8345">
</g>
<g
   id="g8347">
</g>
<g
   id="g8349">
</g>
<g
   id="g8351">
</g>
<g
   id="g8353">
</g>
<g
   id="g8355">
</g>
<g
   id="g8357">
</g>
<g
   id="g8359">
</g>
<g
   id="g8361">
</g>
</svg>