<?xml version="1.0" encoding="UTF-8" standalone="no"?>
<!-- Generator: Adobe Illustrator 19.0.0, SVG Export Plug-In . SVG Version: 6.00 Build 0)  -->

<svg
   xmlns:dc="http://purl.org/dc/elements/1.1/"
   xmlns:cc="http://creativecommons.org/ns#"
   xmlns:rdf="http://www.w3.org/1999/02/22-rdf-syntax-ns#"
   xmlns:svg="http://www.w3.org/2000/svg"
   xmlns="http://www.w3.org/2000/svg"
   xmlns:sodipodi="http://sodipodi.sourceforge.net/DTD/sodipodi-0.dtd"
   xmlns:inkscape="http://www.inkscape.org/namespaces/inkscape"
   version="1.1"
   id="Capa_1"
   x="0px"
   y="0px"
   viewBox="0 0 384 384"
   style="enable-background:new 0 0 384 384;"
   xml:space="preserve"
   sodipodi:docname="gps.svg"
   inkscape:version="0.92.3 (2405546, 2018-03-11)"><metadata
   id="metadata9650"><rdf:RDF><cc:Work
       rdf:about=""><dc:format>image/svg+xml</dc:format><dc:type
         rdf:resource="http://purl.org/dc/dcmitype/StillImage" /></cc:Work></rdf:RDF></metadata><defs
   id="defs9648" /><sodipodi:namedview
   pagecolor="#ffffff"
   bordercolor="#666666"
   borderopacity="1"
   objecttolerance="10"
   gridtolerance="10"
   guidetolerance="10"
   inkscape:pageopacity="0"
   inkscape:pageshadow="2"
   inkscape:window-width="1920"
   inkscape:window-height="1028"
   id="namedview9646"
   showgrid="false"
   inkscape:zoom="0.61458333"
   inkscape:cx="98.440678"
   inkscape:cy="192"
   inkscape:window-x="-8"
   inkscape:window-y="-8"
   inkscape:window-maximized="1"
   inkscape:current-layer="Capa_1" />
<g
   id="g9607"
   style="fill:#ffed00;fill-opacity:1">
	<g
   id="g9605"
   style="fill:#ffed00;fill-opacity:1">
		<path
   d="M192,136c-30.872,0-56,25.12-56,56s25.128,56,56,56s56-25.12,56-56S222.872,136,192,136z M192,216    c-13.232,0-24-10.768-24-24s10.768-24,24-24s24,10.768,24,24S205.232,216,192,216z"
   id="path9603"
   style="fill:#ffed00;fill-opacity:1" />
	</g>
</g>
<g
   id="g9613"
   style="fill:#ffed00;fill-opacity:1">
	<g
   id="g9611"
   style="fill:#ffed00;fill-opacity:1">
		<path
   d="M368,176h-32.944C327.648,109.368,274.632,56.352,208,48.944V16c0-8.832-7.168-16-16-16c-8.832,0-16,7.168-16,16v32.944    C109.368,56.352,56.352,109.368,48.944,176H16c-8.832,0-16,7.168-16,16c0,8.832,7.168,16,16,16h32.944    C56.352,274.632,109.368,327.648,176,335.056V368c0,8.832,7.168,16,16,16c8.832,0,16-7.168,16-16v-32.944    c66.632-7.408,119.648-60.424,127.056-127.056H368c8.832,0,16-7.168,16-16C384,183.168,376.832,176,368,176z M192,304    c-61.76,0-112-50.24-112-112S130.24,80,192,80s112,50.24,112,112S253.76,304,192,304z"
   id="path9609"
   style="fill:#ffed00;fill-opacity:1" />
	</g>
</g>
<g
   id="g9615">
</g>
<g
   id="g9617">
</g>
<g
   id="g9619">
</g>
<g
   id="g9621">
</g>
<g
   id="g9623">
</g>
<g
   id="g9625">
</g>
<g
   id="g9627">
</g>
<g
   id="g9629">
</g>
<g
   id="g9631">
</g>
<g
   id="g9633">
</g>
<g
   id="g9635">
</g>
<g
   id="g9637">
</g>
<g
   id="g9639">
</g>
<g
   id="g9641">
</g>
<g
   id="g9643">
</g>
</svg>