<?xml version="1.0" encoding="UTF-8" standalone="no"?>
<!-- Generator: Adobe Illustrator 19.0.0, SVG Export Plug-In . SVG Version: 6.00 Build 0)  -->

<svg
   xmlns:dc="http://purl.org/dc/elements/1.1/"
   xmlns:cc="http://creativecommons.org/ns#"
   xmlns:rdf="http://www.w3.org/1999/02/22-rdf-syntax-ns#"
   xmlns:svg="http://www.w3.org/2000/svg"
   xmlns="http://www.w3.org/2000/svg"
   xmlns:sodipodi="http://sodipodi.sourceforge.net/DTD/sodipodi-0.dtd"
   xmlns:inkscape="http://www.inkscape.org/namespaces/inkscape"
   version="1.1"
   id="Layer_1"
   x="0px"
   y="0px"
   viewBox="0 0 504 504"
   style="enable-background:new 0 0 504 504;"
   xml:space="preserve"
   sodipodi:docname="youtube.svg"
   inkscape:version="0.92.3 (2405546, 2018-03-11)"><metadata
   id="metadata9009"><rdf:RDF><cc:Work
       rdf:about=""><dc:format>image/svg+xml</dc:format><dc:type
         rdf:resource="http://purl.org/dc/dcmitype/StillImage" /></cc:Work></rdf:RDF></metadata><defs
   id="defs9007" /><sodipodi:namedview
   pagecolor="#ffffff"
   bordercolor="#666666"
   borderopacity="1"
   objecttolerance="10"
   gridtolerance="10"
   guidetolerance="10"
   inkscape:pageopacity="0"
   inkscape:pageshadow="2"
   inkscape:window-width="1920"
   inkscape:window-height="1028"
   id="namedview9005"
   showgrid="false"
   inkscape:zoom="0.46825397"
   inkscape:cx="129.20339"
   inkscape:cy="252"
   inkscape:window-x="-8"
   inkscape:window-y="-8"
   inkscape:window-maximized="1"
   inkscape:current-layer="Layer_1" />
<g
   id="g8966"
   style="fill:#ffed00;fill-opacity:1">
	<g
   id="g8964"
   style="fill:#ffed00;fill-opacity:1">
		<polygon
   points="219.6,202.4 219.6,294.4 304.4,248.8   "
   id="polygon8962"
   style="fill:#ffed00;fill-opacity:1" />
	</g>
</g>
<g
   id="g8972"
   style="fill:#ffed00;fill-opacity:1">
	<g
   id="g8970"
   style="fill:#ffed00;fill-opacity:1">
		<path
   d="M377.6,0H126C56.8,0,0,56.8,0,126.4V378c0,69.2,56.8,126,126,126h251.6c69.6,0,126.4-56.8,126.4-126.4V126.4    C504,56.8,447.2,0,377.6,0z M408,264.4c0,26.4-2.4,53.2-2.4,53.2s-2.8,22.4-12,32.4c-12,13.2-25.2,13.2-31.2,14    c-44,3.2-110,3.6-110,3.6s-82-1.2-107.2-3.6c-6.8-1.2-22.8-0.8-34.8-14c-9.6-10-12-32.4-12-32.4S96,290.8,96,264.4v-24.8    c0-26.4,2.4-53.2,2.4-53.2s2.8-22.4,12-32.4c12-13.2,25.2-13.6,31.2-14.4C186,136.4,252,136,252,136s66,0.4,110,3.6    c6,0.8,19.6,1.2,31.6,14c9.6,10,12,32.8,12,32.8s2.4,26.8,2.4,53.2V264.4z"
   id="path8968"
   style="fill:#ffed00;fill-opacity:1" />
	</g>
</g>
<g
   id="g8974">
</g>
<g
   id="g8976">
</g>
<g
   id="g8978">
</g>
<g
   id="g8980">
</g>
<g
   id="g8982">
</g>
<g
   id="g8984">
</g>
<g
   id="g8986">
</g>
<g
   id="g8988">
</g>
<g
   id="g8990">
</g>
<g
   id="g8992">
</g>
<g
   id="g8994">
</g>
<g
   id="g8996">
</g>
<g
   id="g8998">
</g>
<g
   id="g9000">
</g>
<g
   id="g9002">
</g>
</svg>