<?xml version="1.0" encoding="UTF-8" standalone="no"?>
<svg
   xmlns:dc="http://purl.org/dc/elements/1.1/"
   xmlns:cc="http://creativecommons.org/ns#"
   xmlns:rdf="http://www.w3.org/1999/02/22-rdf-syntax-ns#"
   xmlns:svg="http://www.w3.org/2000/svg"
   xmlns="http://www.w3.org/2000/svg"
   xmlns:sodipodi="http://sodipodi.sourceforge.net/DTD/sodipodi-0.dtd"
   xmlns:inkscape="http://www.inkscape.org/namespaces/inkscape"
   inkscape:version="1.0 (4035a4fb49, 2020-05-01)"
   sodipodi:docname="mouse.svg"
   xml:space="preserve"
   style="enable-background:new 0 0 512 512;"
   viewBox="0 0 512 512"
   y="0px"
   x="0px"
   id="Capa_1"
   version="1.1"><metadata
   id="metadata8326"><rdf:RDF><cc:Work
       rdf:about=""><dc:format>image/svg+xml</dc:format><dc:type
         rdf:resource="http://purl.org/dc/dcmitype/StillImage" /></cc:Work></rdf:RDF></metadata><defs
   id="defs8324" /><sodipodi:namedview
   inkscape:current-layer="Capa_1"
   inkscape:window-maximized="1"
   inkscape:window-y="-8"
   inkscape:window-x="-8"
   inkscape:cy="397.4548"
   inkscape:cx="228.51765"
   inkscape:zoom="1.328125"
   showgrid="false"
   id="namedview8322"
   inkscape:window-height="847"
   inkscape:window-width="1440"
   inkscape:pageshadow="2"
   inkscape:pageopacity="0"
   guidetolerance="10"
   gridtolerance="10"
   objecttolerance="10"
   borderopacity="1"
   bordercolor="#666666"
   pagecolor="#ffffff" />
<g
   style="fill:#006633;fill-opacity:1"
   id="g8277">
	<g
   style="fill:#006633;fill-opacity:1"
   id="g8275">
		<circle
   style="fill:#006633;fill-opacity:1"
   id="circle8273"
   r="15.521"
   cy="304.406"
   cx="207.261" />
	</g>
</g>
<g
   style="fill:#006633;fill-opacity:1"
   id="g8283">
	<g
   style="fill:#006633;fill-opacity:1"
   id="g8281">
		<circle
   style="fill:#006633;fill-opacity:1"
   id="circle8279"
   r="15.521"
   cy="304.406"
   cx="310.206" />
	</g>
</g>
<g
   style="fill:#006633;fill-opacity:1"
   id="g8289">
	<g
   style="fill:#006633;fill-opacity:1"
   id="g8287">
		<path
   style="fill:#006633;fill-opacity:1"
   id="path8285"
   d="M512,119.865C512,60.929,464.051,12.98,405.114,12.98c-24.328,0-48.138,8.396-67.042,23.641    c-14.263,11.503-25.321,26.55-32.116,43.389c-15.529-4.647-31.973-7.156-48.994-7.156c-17.651,0-34.686,2.687-50.719,7.671    c-6.775-17.046-17.91-32.285-32.318-43.903c-18.904-15.245-42.713-23.641-67.042-23.641C47.949,12.98,0,60.929,0,119.865    c0,52.032,37.13,95.622,86.873,105.004c-0.704,6.29-1.078,12.679-1.078,19.154c0,26.484,12.652,57.932,31.373,89.975H101.82    v30.002h34.422c6.07,8.878,12.449,17.698,18.998,26.364l-38.138,10.661l8.076,28.895l50.149-14.018    c8.917,10.924,17.884,21.42,26.576,31.269c3.092,3.503,6.489,6.675,10.143,9.507c0.88,23.497,20.258,42.344,43.967,42.344    c23.201,0,42.252-18.049,43.882-40.842c4.418-3.186,8.479-6.867,12.136-11.007c8.784-9.953,17.849-20.567,26.859-31.615    l51.385,14.363l8.076-28.895l-39.392-11.011c6.457-8.554,12.745-17.255,18.733-26.014h35.442v-30.002h-16.368    c18.717-32.041,31.366-63.487,31.366-89.975c0-6.603-0.389-13.116-1.12-19.526C475.805,214.382,512,171.238,512,119.865z     M30.002,119.865c0-42.394,34.49-76.884,76.884-76.884c32.276,0,60.333,19.644,71.645,48.93    c-40.996,21.225-72.364,58.541-85.703,103.533C56.881,188.837,30.002,157.413,30.002,119.865z M256.014,469.018    c-7.724,0-14.008-6.283-14.008-14.008c0-7.724,6.283-14.008,14.008-14.008c7.724,0,14.008,6.283,14.008,14.008    C270.021,462.734,263.738,469.018,256.014,469.018z M361.735,333.997H306.98v30.002h34.038    c-4.162,5.658-8.563,11.443-13.154,17.322l-20.887-5.838l-8.076,28.895l8.375,2.341c-5.565,6.628-11.362,13.367-17.402,20.215    c-8.079-9.727-20.258-15.932-33.861-15.932c-13.083,0-24.843,5.744-32.911,14.836c-5.589-6.353-10.973-12.613-16.152-18.775    l9.604-2.684l-8.076-28.895l-22.134,6.187c-4.69-6-9.182-11.901-13.427-17.671h35.058v-30.002h-55.776    c-23.815-37.051-36.403-67.794-36.403-89.975c0-77.84,63.327-141.167,141.167-141.167s141.167,63.327,141.167,141.167    C398.131,266.207,385.545,296.95,361.735,333.997z M420.995,195.091c-13.574-45.419-45.53-82.976-87.205-103.997    c11.516-28.833,39.349-48.113,71.324-48.113c42.394,0,76.884,34.49,76.884,76.884    C481.998,156.776,456.024,187.773,420.995,195.091z" />
	</g>
</g>
<g
   id="g8291">
</g>
<g
   id="g8293">
</g>
<g
   id="g8295">
</g>
<g
   id="g8297">
</g>
<g
   id="g8299">
</g>
<g
   id="g8301">
</g>
<g
   id="g8303">
</g>
<g
   id="g8305">
</g>
<g
   id="g8307">
</g>
<g
   id="g8309">
</g>
<g
   id="g8311">
</g>
<g
   id="g8313">
</g>
<g
   id="g8315">
</g>
<g
   id="g8317">
</g>
<g
   id="g8319">
</g>
</svg>
