<?xml version="1.0" encoding="UTF-8" standalone="no"?>
<svg
   xmlns:dc="http://purl.org/dc/elements/1.1/"
   xmlns:cc="http://creativecommons.org/ns#"
   xmlns:rdf="http://www.w3.org/1999/02/22-rdf-syntax-ns#"
   xmlns:svg="http://www.w3.org/2000/svg"
   xmlns="http://www.w3.org/2000/svg"
   xmlns:sodipodi="http://sodipodi.sourceforge.net/DTD/sodipodi-0.dtd"
   xmlns:inkscape="http://www.inkscape.org/namespaces/inkscape"
   inkscape:version="1.0 (4035a4fb49, 2020-05-01)"
   sodipodi:docname="709533.svg"
   xml:space="preserve"
   style="enable-background:new 0 0 512 512;"
   viewBox="0 0 512 512"
   y="0px"
   x="0px"
   id="Capa_1"
   version="1.1"><metadata
   id="metadata49"><rdf:RDF><cc:Work
       rdf:about=""><dc:format>image/svg+xml</dc:format><dc:type
         rdf:resource="http://purl.org/dc/dcmitype/StillImage" /></cc:Work></rdf:RDF></metadata><defs
   id="defs47" /><sodipodi:namedview
   inkscape:current-layer="Capa_1"
   inkscape:window-maximized="1"
   inkscape:window-y="-8"
   inkscape:window-x="-8"
   inkscape:cy="256"
   inkscape:cx="228.51765"
   inkscape:zoom="1.328125"
   showgrid="false"
   id="namedview45"
   inkscape:window-height="847"
   inkscape:window-width="1440"
   inkscape:pageshadow="2"
   inkscape:pageopacity="0"
   guidetolerance="10"
   gridtolerance="10"
   objecttolerance="10"
   borderopacity="1"
   bordercolor="#666666"
   pagecolor="#ffffff" />
<g
   style="fill:#dddddd;fill-opacity:1"
   id="g6">
	<g
   style="fill:#dddddd;fill-opacity:1"
   id="g4">
		<path
   style="fill:#dddddd;fill-opacity:1"
   id="path2"
   d="M505.496,240.307l-194.59-194.59c-8.672-8.671-22.714-8.671-31.386,0c-8.671,8.664-8.671,22.722,0,31.386L458.418,256    L279.521,434.897c-8.671,8.664-8.671,22.722,0,31.386c4.336,4.336,10.011,6.504,15.693,6.504s11.365-2.168,15.693-6.504    l194.59-194.59C514.168,263.029,514.168,248.971,505.496,240.307z" />
	</g>
</g>
<g
   style="fill:#dddddd;fill-opacity:1"
   id="g12">
	<g
   style="fill:#dddddd;fill-opacity:1"
   id="g10">
		<path
   style="fill:#dddddd;fill-opacity:1"
   id="path8"
   d="M232.479,240.307L37.889,45.717c-8.664-8.671-22.722-8.671-31.386,0c-8.671,8.664-8.671,22.722,0,31.386L185.393,256    L6.504,434.897c-8.671,8.664-8.671,22.722,0,31.386c4.328,4.336,10.011,6.504,15.693,6.504s11.365-2.168,15.693-6.504    l194.59-194.59C241.15,263.029,241.15,248.971,232.479,240.307z" />
	</g>
</g>
<g
   id="g14">
</g>
<g
   id="g16">
</g>
<g
   id="g18">
</g>
<g
   id="g20">
</g>
<g
   id="g22">
</g>
<g
   id="g24">
</g>
<g
   id="g26">
</g>
<g
   id="g28">
</g>
<g
   id="g30">
</g>
<g
   id="g32">
</g>
<g
   id="g34">
</g>
<g
   id="g36">
</g>
<g
   id="g38">
</g>
<g
   id="g40">
</g>
<g
   id="g42">
</g>
</svg>
